<svg id="Layer_1" data-name="Layer 1" xmlns="http://www.w3.org/2000/svg" viewBox="0 0 1423.16 1343.24"><defs><style>.cls-1{fill:none;stroke:#9b4dca;stroke-miterlimit:10;stroke-width:10px;}.cls-2{fill:#9b4dca;}</style></defs><title>luxapps logo</title><path class="cls-1" d="M687.11,1669.12H856.28c30,0,57.7-16.67,72.29-43.56l263-484.69,247.94,476c16.75,32.15,49.43,52.23,85,52.23h183l-515.9-986.07Z" transform="translate(-292.55 -330.88)"/><path class="cls-2" d="M1281.78,1525.4,1340.59,1663H1031.05l69.11-141.52c13.85-28.38,42.18-46.3,73.16-46.3h33.52C1239.34,1475.21,1268.76,1494.91,1281.78,1525.4Z" transform="translate(-292.55 -330.88)"/><path class="cls-2" d="M1048.21,490.3a112.56,112.56,0,0,1,1.38,104.47L606.26,1469.56H718.5L632,1631.66a70.77,70.77,0,0,1-62.45,37.46H338c-34.28,0-56.18-37.45-40-68.32L961.66,330.88Z" transform="translate(-292.55 -330.88)"/></svg>