<?xml version="1.0" encoding="iso-8859-1"?>
<!-- Generator: Adobe Illustrator 22.1.0, SVG Export Plug-In . SVG Version: 6.00 Build 0)  -->
<svg xmlns="http://www.w3.org/2000/svg" xmlns:xlink="http://www.w3.org/1999/xlink" version="1.1" id="Layer_1_1_" x="0px" y="0px" viewBox="0 0 64 64" style="enable-background:new 0 0 64 64;" xml:space="preserve" width="512" height="512">
<linearGradient id="SVGID_1_" gradientUnits="userSpaceOnUse" x1="32" y1="63" x2="32" y2="1">
	<stop offset="0" style="stop-color:#9F2FFF"/>
	<stop offset="1" style="stop-color:#0BB1D3"/>
</linearGradient>
<path style="fill:url(#SVGID_1_);" d="M21.301,4.825C19.206,2.394,16.229,1,13,1C6.935,1,2,5.935,2,12  c0,3.978,2.169,7.629,5.597,9.567c-0.002,0.005-0.005,0.01-0.007,0.015C5.872,25.708,5,30.066,5,34.535V36c0,14.888,12.112,27,27,27  s27-12.112,27-27v-1.465c0-4.469-0.872-8.827-2.591-12.953c-0.002-0.005-0.005-0.01-0.007-0.015C59.831,19.629,62,15.978,62,12  c0-6.065-4.935-11-11-11c-3.229,0-6.206,1.394-8.301,3.825C41.113,4.276,36.908,3,32,3S22.887,4.276,21.301,4.825z M4,12  c0-4.963,4.038-9,9-9c2.561,0,4.931,1.07,6.636,2.949l-1.45,1.45C16.983,6.496,15.531,6,14,6c-3.86,0-7,3.141-7,7  c0,1.964,0.835,3.827,2.266,5.144c-0.289,0.52-0.567,1.048-0.829,1.584C5.719,18.121,4,15.194,4,12z M10.325,16.374  C9.485,15.46,9,14.26,9,13c0-2.757,2.243-5,5-5c0.995,0,1.946,0.291,2.757,0.829l-1.892,1.893  C13.137,12.449,11.626,14.342,10.325,16.374z M57,34.535V36c0,3.378-0.677,6.6-1.897,9.542C53.424,48.292,50.393,50,47.169,50  C46.524,50,46,49.476,46,48.831V45.58l3.172-1.812C51.533,42.418,53,39.891,53,37.171c0-2.32-1.039-4.482-2.852-5.934  c-1.539-1.23-2.818-2.812-3.699-4.575l-0.908-1.815C44.972,23.708,43.827,23,42.553,23c-0.515,0-1.031,0.122-1.495,0.353L37,25.382  V26c0,4.102,1.093,8.143,3.16,11.687l3.226,5.53C43.788,43.905,44,44.691,44,45.489v3.342C44,50.578,45.421,52,47.169,52  c1.738,0,3.421-0.428,4.945-1.174C47.557,56.992,40.239,61,32,61s-15.557-4.008-20.114-10.174C13.41,51.572,15.093,52,16.831,52  C18.579,52,20,50.578,20,48.831v-3.342c0-0.798,0.212-1.584,0.614-2.272l3.226-5.53C25.907,34.143,27,30.102,27,26v-0.618  l-4.059-2.029C22.479,23.122,21.962,23,21.447,23c-1.274,0-2.419,0.708-2.989,1.847l-0.908,1.815c-0.881,1.763-2.16,3.345-3.7,4.576  C12.039,32.688,11,34.851,11,37.171c0,2.72,1.467,5.247,3.828,6.597L18,45.58v3.251C18,49.476,17.476,50,16.831,50  c-3.224,0-6.255-1.708-7.934-4.458C7.677,42.6,7,39.378,7,36v-1.465c0-4.203,0.82-8.303,2.437-12.184  c1.6-3.838,3.901-7.275,6.842-10.216l5.277-5.277C22.493,6.513,26.889,5,32,5c5.095,0,9.505,1.514,10.445,1.859l5.277,5.276  c2.94,2.94,5.242,6.378,6.842,10.216C56.18,26.232,57,30.332,57,34.535z M41,34c0-0.552,0.449-1,1-1s1,0.448,1,1s-0.449,1-1,1  S41,34.552,41,34z M45,34c0-1.654-1.346-3-3-3c-0.845,0-1.607,0.354-2.153,0.919c-0.501-1.721-0.786-3.504-0.839-5.305l2.943-1.472  c0.646-0.322,1.479-0.043,1.801,0.6l0.908,1.815c1.01,2.02,2.476,3.833,4.239,5.242C50.234,33.868,51,35.462,51,37.171  c0,2.004-1.081,3.866-2.82,4.86l-2.503,1.431c-0.143-0.435-0.331-0.855-0.563-1.253l-3.043-5.216C43.692,36.954,45,35.63,45,34z   M22,35c-0.551,0-1-0.448-1-1s0.449-1,1-1s1,0.448,1,1S22.551,35,22,35z M24.153,31.919C23.607,31.354,22.845,31,22,31  c-1.654,0-3,1.346-3,3c0,1.63,1.308,2.954,2.93,2.993l-3.043,5.216c-0.232,0.397-0.42,0.818-0.563,1.253l-2.503-1.431  c-1.74-0.994-2.82-2.856-2.82-4.86c0-1.709,0.766-3.303,2.101-4.371c1.764-1.41,3.229-3.224,4.239-5.243l0.908-1.815  c0.229-0.457,0.688-0.741,1.2-0.741c0.207,0,0.415,0.049,0.6,0.142l2.944,1.472C24.939,28.415,24.653,30.198,24.153,31.919z   M49.136,10.722l-1.892-1.893C48.054,8.291,49.005,8,50,8c2.757,0,5,2.243,5,5c0,1.26-0.485,2.46-1.325,3.374  C52.374,14.342,50.863,12.449,49.136,10.722z M51,3c4.962,0,9,4.037,9,9c0,3.194-1.719,6.121-4.437,7.729  c-0.262-0.537-0.54-1.064-0.829-1.584C56.165,16.827,57,14.964,57,13c0-3.859-3.14-7-7-7c-1.531,0-2.983,0.496-4.187,1.399  l-1.45-1.45C46.069,4.07,48.439,3,51,3z M27.043,43C25.365,43,24,44.365,24,46.043c0,0.906,0.399,1.759,1.095,2.338l4.342,3.618  C28.48,52.649,27.353,53,26.171,53h-3.79l0.836,1.673C24.553,57.342,27.236,59,30.22,59h3.56c2.984,0,5.667-1.658,7.002-4.327  L41.618,53h-3.79c-1.182,0-2.309-0.351-3.266-1.001l4.341-3.618C39.601,47.802,40,46.949,40,46.043C40,44.365,38.635,43,36.957,43  H27.043z M38.178,55c-1.089,1.259-2.677,2-4.398,2h-3.56c-1.722,0-3.309-0.741-4.398-2h0.35c1.944,0,3.775-0.712,5.213-2h1.232  c1.437,1.288,3.268,2,5.213,2H38.178z M38,46.043c0,0.311-0.137,0.603-0.375,0.801L32.638,51h-1.275l-4.987-4.156  C26.137,46.646,26,46.354,26,46.043C26,45.468,26.468,45,27.043,45h9.914C37.532,45,38,45.468,38,46.043z"/>
</svg>
